<svg xmlns="http://www.w3.org/2000/svg" width="140" height="54" viewBox="0 0 140 54" fill="none">
<path d="M36.0742 0C26.1102 0 18.0371 8.01077 18.0371 17.8978V0H0V17.8978H18.0371C8.07313 17.8978 0 25.9085 0 35.7955V53.6933H18.0371V35.7955C18.0371 45.6785 26.1102 53.6933 36.0742 53.6933H54.1112V35.7955H36.0742C46.0341 35.7955 54.1112 27.7848 54.1112 17.8978C54.1072 8.01077 46.0341 0 36.0742 0ZM36.0742 35.7955H18.0371V17.8978H36.0742V35.7955Z" fill="#FDB927"/>
<path d="M51.626 0.434199H53.2237V4.80009H53.7255V0.434199H55.3233V0H51.626V0.434199Z" fill="#FDB927"/>
<path d="M56.5236 0.346563C56.7444 1.11537 57.6678 3.60106 58.1093 4.80009H58.571C59.1571 3.28637 60.0483 1.05961 60.2491 0.354529H60.2732C60.2531 0.844497 60.2451 1.74875 60.2451 2.66495V4.80009H60.7308V0H60.0082C59.3819 1.52966 58.4907 3.79625 58.3783 4.1946H58.3663C58.1937 3.62098 57.4309 1.57347 56.8207 0H56.082V4.80009H56.5598V2.81234C56.5598 1.98776 56.5437 0.896282 56.5076 0.342579H56.5236V0.346563Z" fill="#FDB927"/>
<path d="M60.0167 28.0876L57.2588 38.3013H62.9393L65.6972 28.0876H60.0167Z" fill="white"/>
<path d="M60.2012 27.3704H65.9017L66.3955 25.4902H60.695L60.2012 27.3704Z" fill="white"/>
<path d="M66.3674 37.0425C67.2385 38.0583 68.7801 38.5642 70.9881 38.5642C72.2647 38.5642 73.3285 38.3889 74.1796 38.0344C75.0306 37.6799 75.7292 37.1381 76.2791 36.4091C76.8291 35.6801 77.2868 34.7719 77.6601 33.6804L76.4036 38.2973H82.0841L85.4402 25.8967H79.7597L77.7404 33.3538L77.6561 33.6605C77.2707 34.1903 76.797 34.5887 76.235 34.8556C75.673 35.1225 74.8901 35.2539 73.8865 35.2539C72.7865 35.2539 72.0439 35.0866 71.6545 34.752C71.2651 34.4174 71.1286 33.9912 71.253 33.4733C71.514 32.342 72.6541 31.7724 74.6693 31.7564C75.5204 31.7445 76.2149 31.8719 76.7488 32.1428C77.2828 32.4137 77.612 32.816 77.7364 33.3498C78.1338 31.4178 77.9572 30.0117 77.2025 29.1313C76.4478 28.251 75.1591 27.8128 73.3325 27.8128C71.9997 27.8128 70.8074 28.012 69.7516 28.4143C68.6958 28.8166 67.8126 29.3982 67.1061 30.159C66.3995 30.9239 65.9137 31.856 65.6528 32.9594C65.2594 34.6723 65.4962 36.0307 66.3674 37.0425Z" fill="white"/>
<path d="M85.6372 37.3092C86.7693 38.1736 88.8528 38.6078 91.8838 38.6078C92.8151 38.6078 93.6662 38.5879 94.4249 38.548C95.1837 38.5082 95.9223 38.4325 96.6289 38.325C97.3354 38.2174 98.0661 38.066 98.8208 37.8748L99.6839 34.6482C98.6281 34.8115 97.6365 34.9231 96.7092 34.9868C95.7818 35.0465 94.8465 35.0784 93.899 35.0784C92.5542 35.0784 91.6108 34.9948 91.0688 34.8314C90.5269 34.6681 90.2419 34.3893 90.2138 33.9949H100.053C100.535 32.537 100.659 31.3499 100.435 30.4297C100.21 29.5095 99.5916 28.8403 98.5799 28.418C97.5723 27.9958 96.1191 27.7847 94.2242 27.7847C91.659 27.7847 89.5433 28.2587 87.8854 29.2028C86.2234 30.1509 85.1394 31.557 84.6336 33.4213C84.172 35.1461 84.5052 36.4448 85.6372 37.3092ZM93.3651 31.4973C94.8344 31.4973 95.4446 32.0032 95.1957 33.007H90.4185C90.8199 32.0032 91.7995 31.4973 93.3651 31.4973Z" fill="white"/>
<path d="M101.354 37.7793C102.053 38.329 103.229 38.6079 104.875 38.6079C105.959 38.6079 106.87 38.5242 107.601 38.3529C108.335 38.1816 108.933 37.8988 109.403 37.5044C109.869 37.1101 110.238 36.5842 110.515 35.931C110.35 36.0823 110.094 36.1899 109.744 36.2576C109.395 36.3253 108.813 36.3612 108.006 36.3612C107.127 36.3612 106.565 36.3014 106.316 36.1859C106.067 36.0704 105.967 35.9031 106.007 35.684C106.047 35.4649 106.216 35.3016 106.513 35.194C106.806 35.0865 107.372 35.0307 108.211 35.0307C109.09 35.0307 109.68 35.0865 109.981 35.194C110.282 35.3016 110.487 35.445 110.599 35.6242L110.515 35.931L109.877 38.3011H115.557L116.938 33.2142C117.187 32.2901 117.275 31.4854 117.207 30.8042C117.139 30.123 116.858 29.5574 116.364 29.1073C115.87 28.6571 115.116 28.3225 114.1 28.1074C113.084 27.8883 111.768 27.7808 110.146 27.7808C108.789 27.7808 107.516 27.8405 106.336 27.956C105.156 28.0716 103.996 28.2667 102.855 28.5376L101.784 32.5012C102.719 32.2303 103.65 32.0192 104.582 31.8798C105.513 31.7364 106.517 31.6647 107.588 31.6647C108.713 31.6647 109.544 31.7483 110.081 31.9196C110.615 32.0909 110.945 32.3538 111.069 32.7043C111.193 33.0589 111.177 33.4931 111.029 34.0109L110.595 35.6043C110.748 34.5965 110.475 33.8516 109.78 33.3656C109.086 32.8836 108.006 32.6406 106.537 32.6406C104.875 32.6406 103.538 32.8836 102.522 33.3656C101.507 33.8476 100.88 34.5527 100.647 35.4808C100.419 36.4608 100.651 37.2256 101.354 37.7793Z" fill="white"/>
<path d="M75.2921 42.6351C74.5494 42.1531 73.1804 41.9102 71.1732 41.9102H60.4064L57.2148 53.6973H62.7508L63.5136 50.9208H67.2189C67.6726 50.9208 67.9857 50.9965 68.1543 51.1439C68.3269 51.2952 68.3791 51.5581 68.3069 51.9406L67.9576 53.6973H73.618L74.0917 51.2235C74.3406 49.9966 74.2483 49.1242 73.8228 48.5984C73.3972 48.0726 72.5863 47.8137 71.394 47.8137H69.19L69.2101 47.7738C70.5269 47.7738 71.6068 47.7101 72.4538 47.5786C73.2969 47.4512 73.9593 47.2639 74.441 47.017C74.9227 46.77 75.276 46.4792 75.5129 46.1366C75.7457 45.798 75.9103 45.4156 76.0066 44.9934C76.2716 43.9019 76.0307 43.1171 75.2921 42.6351ZM70.0612 46.8298C70.005 47.1444 69.8404 47.3755 69.5674 47.5229C69.2944 47.6703 68.8328 47.746 68.1864 47.746H64.3566L64.8504 45.9056H68.6601C69.2784 45.9056 69.6798 45.9813 69.8645 46.1287C70.0532 46.288 70.1174 46.519 70.0612 46.8298Z" fill="white"/>
<path d="M92.0886 44.6547C90.9485 43.6946 88.9051 43.2126 85.9545 43.2126C83.0038 43.2126 80.7196 43.6787 79.0977 44.6108C77.4799 45.543 76.4361 46.8814 75.9704 48.6262C75.5168 50.2873 75.8621 51.5979 77.0102 52.5579C78.1543 53.5179 80.1977 53.9999 83.1363 53.9999C86.0749 53.9999 88.3551 53.5338 89.981 52.6017C91.6069 51.6696 92.6466 50.371 93.1002 48.7098C93.5659 46.9691 93.2287 45.6147 92.0886 44.6547ZM87.3957 48.7298C87.2311 49.3432 86.8577 49.8053 86.2756 50.12C85.6935 50.4347 84.9388 50.59 84.0195 50.59C83.1002 50.59 82.4297 50.4347 82.0122 50.12C81.5947 49.8053 81.4663 49.3432 81.6309 48.7298C81.7955 48.1044 82.1768 47.6263 82.775 47.2997C83.3732 46.973 84.1239 46.8097 85.0311 46.8097C85.9384 46.8097 86.6008 46.973 87.0183 47.2997C87.4358 47.6263 87.5603 48.1044 87.3957 48.7298Z" fill="white"/>
<path d="M110.266 44.6547C109.126 43.6946 107.083 43.2126 104.132 43.2126C101.182 43.2126 98.8973 43.6787 97.2755 44.6108C95.6536 45.543 94.6139 46.8814 94.1482 48.6262C93.6945 50.2873 94.0398 51.5979 95.1879 52.5579C96.3361 53.5179 98.3754 53.9999 101.314 53.9999C104.253 53.9999 106.533 53.5338 108.159 52.6017C109.785 51.6696 110.824 50.371 111.278 48.7098C111.744 46.9691 111.406 45.6147 110.266 44.6547ZM105.573 48.7298C105.409 49.3432 105.035 49.8053 104.453 50.12C103.871 50.4347 103.117 50.59 102.197 50.59C101.278 50.59 100.607 50.4347 100.19 50.12C99.7725 49.8053 99.644 49.3432 99.8086 48.7298C99.9732 48.1044 100.355 47.6263 100.953 47.2997C101.551 46.973 102.302 46.8097 103.209 46.8097C104.116 46.8097 104.779 46.973 105.196 47.2997C105.61 47.6263 105.738 48.1044 105.573 48.7298Z" fill="white"/>
<path d="M139.302 45.4237C139.186 44.7027 138.817 44.145 138.202 43.7586C137.584 43.3722 136.645 43.177 135.38 43.177C133.927 43.177 132.626 43.5435 131.478 44.2804C130.334 45.0174 129.451 46.1248 128.833 47.6106C129.053 46.6864 129.085 45.8898 128.937 45.2325C128.784 44.5712 128.403 44.0653 127.785 43.7108C127.167 43.3563 126.255 43.181 125.047 43.181C123.594 43.181 122.289 43.5515 121.137 44.2924C119.985 45.0333 119.105 46.1487 118.503 47.6305L119.615 43.4837H113.931L111.173 53.6974H116.853L118.479 47.7102C118.768 47.6265 119.097 47.5588 119.467 47.507C119.836 47.4513 120.242 47.4234 120.683 47.4234C121.562 47.4234 122.165 47.5548 122.494 47.8217C122.823 48.0886 122.899 48.5547 122.719 49.2199L121.502 53.6934H127.183L128.728 48.0129C128.74 47.9572 128.756 47.9094 128.768 47.8616C128.78 47.8138 128.796 47.762 128.808 47.7102C129.098 47.6265 129.427 47.5588 129.796 47.507C130.165 47.4513 130.571 47.4234 131.012 47.4234C131.892 47.4234 132.494 47.5548 132.823 47.8217C133.152 48.0886 133.228 48.5547 133.048 49.2199L131.831 53.6934H137.512L139.057 48.0129C139.342 47.0091 139.419 46.1447 139.302 45.4237Z" fill="white"/>
</svg>